PathFileType	4	(X/Y/Z)	C:\Users\WrightLab\Desktop\Jo\P5V11.trc
DataRate	CameraRate	NumFrames	NumMarkers	Units	OrigDataRate	OrigDataStartFrame	OrigNumFrames
100.00	100.00	       43	19	mm	100.00	101	       804
Frame#	Time	Headset_Front			Headset_Back			Headset_Left			Headset_Right			Left_Shoulder			Right_Shoulder			Sternum			C7			Left Elbow			Right Elbow			Left Wrist			Right Wrist			Left ASIS			Right ASIS			S2			Left Knee			Right Knee			Left Ankle			Right Ankle			
		X1	Y1	Z1	X2	Y2	Z2	X3	Y3	Z3	X4	Y4	Z4	X5	Y5	Z5	X6	Y6	Z6	X7	Y7	Z7	X8	Y8	Z8	X9	Y9	Z9	X10	Y10	Z10	X11	Y11	Z11	X12	Y12	Z12	X13	Y13	Z13	X14	Y14	Z14	X15	Y15	Z15	X16	Y16	Z16	X17	Y17	Z17	X18	Y18	Z18	X19	Y19	Z19	

101	1.000				-48.13690	900.66644	-1347.10498																						-455.20697	1140.25684	-1482.36682	97.75130	927.29742	-1347.78125	-453.90393	896.33606	-1373.88110				-326.95563	924.64600	-1345.65088				-60.09114	459.49088	-1403.53662	-357.52603	481.22430	-1344.56348							
102	1.010				-50.71509	900.80267	-1342.23425																						-457.00809	1140.38403	-1480.97998	96.20577	927.99866	-1343.52734	-455.00040	896.69897	-1372.40906				-329.17441	924.99091	-1342.52405				-62.09597	457.88004	-1405.34241	-357.97180	480.61099	-1343.43018							
103	1.020				-52.30129	899.70996	-1343.13806																						-458.66290	1140.78992	-1479.66516	95.04984	927.53180	-1340.90222	-455.88751	896.89172	-1370.83801				-331.40405	924.36816	-1342.72241				-64.92751	459.36035	-1402.00146	-358.45547	479.63007	-1341.99475							
104	1.030				-55.40409	900.78394	-1339.31995																						-460.10303	1140.55005	-1477.12024	93.44540	928.53802	-1337.50745	-457.32724	896.29779	-1367.24890				-334.11804	924.55084	-1339.69202				-66.46089	458.85159	-1401.83252	-358.59637	478.95172	-1341.05139							
105	1.040				-56.67769	900.45490	-1339.43604																						-461.95981	1140.33643	-1474.01831	92.15578	927.75116	-1334.89246	-458.95047	896.79309	-1366.09082				-335.88992	925.00610	-1335.74854				-67.29170	457.97641	-1401.75281	-360.12042	479.14496	-1340.65161							
106	1.050				-59.08619	900.97754	-1334.14832																						-463.37799	1140.72498	-1472.05090	90.96756	927.48376	-1334.81165	-460.58591	896.22559	-1362.67993				-336.91946	925.62891	-1333.73010				-68.19135	457.26501	-1401.16919	-361.58005	478.36774	-1340.52563							
107	1.060				-60.96974	901.45068	-1330.23572																						-464.97482	1139.96875	-1467.57495	89.05149	927.55310	-1331.25964	-462.81424	895.66846	-1363.71240				-338.36499	926.68665	-1328.59106				-70.86283	458.43088	-1392.61682	-362.51639	478.50656	-1340.76160							
108	1.070				-63.73353	902.79443	-1323.21826																						-466.50742	1140.75757	-1466.08252	87.44623	928.12225	-1327.48584	-463.34323	896.30212	-1357.99243				-340.13162	928.58905	-1322.07959				-71.71034	458.01407	-1390.51904	-363.72913	478.89609	-1340.35852							
109	1.080				-64.06316	902.13330	-1325.12988																						-467.76617	1140.81860	-1463.59546	87.26929	927.66901	-1328.68030	-465.72073	895.62225	-1358.98230				-340.25574	928.33765	-1322.64355				-72.94469	457.89859	-1387.80383	-364.38922	478.74234	-1339.76990							
110	1.090				-66.17397	902.21661	-1322.40588																						-469.80112	1141.22119	-1461.25305	86.31977	928.18274	-1326.72986	-466.54752	895.56348	-1355.15234				-341.80475	929.22308	-1317.18262				-74.64124	459.78152	-1383.89795	-365.20419	478.62173	-1338.88904							
111	1.100				-68.19951	903.17163	-1319.11377																						-470.90295	1141.55444	-1459.94104	84.19054	929.35602	-1320.95166	-467.14474	896.52985	-1351.48853				-342.94583	929.28546	-1313.62878				-76.19421	460.34900	-1382.24463	-366.06146	478.35321	-1338.26489							
112	1.110				-69.14635	903.48236	-1319.36365																						-472.89343	1141.41321	-1456.67993	82.71554	930.79883	-1317.67346	-469.14764	895.89783	-1351.16870				-344.07904	930.54755	-1309.98950				-77.68493	459.59348	-1381.75391	-367.85214	478.00070	-1337.65735							
113	1.120				-70.85406	903.28571	-1314.85730																						-474.66351	1141.38904	-1454.02722	82.65077	930.61078	-1318.10657	-470.07339	896.18127	-1348.55029				-345.45755	930.54071	-1304.27173				-78.87022	458.96918	-1380.31116	-368.53937	478.25278	-1336.46118							
114	1.130				-71.76323	903.83636	-1312.90747																						-476.12405	1141.32703	-1451.00830	80.42422	931.86127	-1311.12854	-472.74792	895.82098	-1346.69922				-347.05069	930.80908	-1301.14050				-81.57012	459.52881	-1372.97180	-369.65155	478.35361	-1335.43176							
115	1.140				-72.62777	904.43268	-1310.70190																						-477.66159	1141.71655	-1449.13989	79.67789	932.60162	-1309.76013	-473.70090	896.49463	-1342.26782				-347.93845	931.04675	-1298.13586				-82.51344	458.88635	-1373.10767	-370.03464	477.49503	-1334.87549							
116	1.150				-72.66300	904.26385	-1310.89539																						-479.58746	1140.76697	-1444.19556	78.13007	933.33319	-1305.82312	-476.01202	895.47357	-1342.22034				-349.30353	931.46124	-1295.26563				-82.83722	457.93362	-1374.93896	-371.72382	476.82004	-1333.98486							
117	1.160				-74.48888	905.76862	-1304.08679																						-480.52811	1141.18848	-1442.88123	75.72279	933.86188	-1299.53467	-477.21045	895.51807	-1339.79089				-351.17715	931.89270	-1292.35303				-84.47506	458.41187	-1371.52881	-374.61038	477.50940	-1332.78223							
118	1.170				-75.64354	907.53693	-1299.37817																						-482.37061	1141.74792	-1440.74060	75.48022	933.27838	-1301.14404	-479.83545	895.26569	-1337.77136				-353.56485	932.82007	-1289.29846				-85.26186	458.39670	-1371.35449	-375.94348	477.30475	-1332.45447							
119	1.180				-75.68747	906.78271	-1298.56848																						-484.29855	1142.30737	-1438.71069	73.61610	933.85571	-1296.61157	-480.62131	895.92255	-1333.11121				-354.48590	932.71082	-1286.38892				-87.17716	460.03897	-1365.92041	-377.31403	477.20212	-1331.90112							
120	1.190				-76.61213	906.40356	-1295.15430																						-485.25476	1142.75610	-1437.56897	72.51546	934.28558	-1294.82239	-482.66513	895.32867	-1329.69031				-356.03464	933.01404	-1283.14319				-88.27937	459.95718	-1363.20544	-380.40134	477.41922	-1329.82458							
121	1.200				-77.77906	907.41821	-1291.14294																						-487.12152	1141.78198	-1432.39136	71.27076	933.92291	-1292.68896	-482.70035	896.03259	-1327.82764				-357.85870	933.99335	-1280.39246				-88.85009	460.54309	-1362.75488	-381.48959	477.85419	-1329.71033							
122	1.210				-78.03651	905.95807	-1291.02612																						-488.54413	1142.06873	-1430.21631	69.02587	934.87946	-1287.87732	-484.52383	895.73682	-1324.40601				-359.37430	933.86810	-1277.15942				-90.85963	460.55411	-1358.10950	-384.16196	477.20627	-1328.01038							
123	1.220				-80.23939	906.80334	-1284.80908																						-489.67496	1141.53198	-1426.18250	67.96793	935.24304	-1286.73291	-486.35361	896.26849	-1323.34351				-361.04822	934.04962	-1274.38342				-92.96996	460.47083	-1355.96252	-387.08411	478.07999	-1327.25073							
124	1.230				-80.35324	906.12811	-1285.41418																						-491.07474	1141.49988	-1423.17188	67.84511	934.94562	-1287.53931	-488.49518	895.71472	-1320.14612				-362.16138	933.90503	-1271.19812				-94.70647	458.79025	-1360.28308	-389.06729	477.95886	-1325.20605							
125	1.240				-82.48124	907.20392	-1270.70837																						-492.63309	1141.56165	-1419.81946	65.54649	935.82147	-1281.24353	-489.93951	897.97388	-1314.98254				-363.19064	933.57574	-1268.70789				-97.39696	459.68939	-1356.61621	-391.03949	478.18549	-1323.51196							
126	1.250				-82.86042	907.45380	-1265.42029																						-493.83420	1141.89612	-1417.84937	65.19472	934.19189	-1281.79675	-490.91251	896.43011	-1312.54541				-365.60422	934.05249	-1265.55005				-98.94501	459.94427	-1354.60864	-392.63071	476.98077	-1321.08240							
127	1.260				-85.07220	906.88867	-1261.77246																						-494.60297	1142.29224	-1416.05249	62.80974	934.50098	-1275.51514	-491.80801	896.26929	-1310.34009				-367.51639	934.17078	-1262.50110				-100.62716	460.17950	-1351.51196	-394.45157	477.22208	-1318.24231							
128	1.270				-86.06276	906.86938	-1261.44067																						-496.35522	1141.43579	-1410.91895	62.65299	933.78009	-1276.52588	-493.86856	896.10291	-1307.66760				-368.33051	934.01300	-1259.72937				-103.13768	461.68716	-1346.51941	-398.01834	477.74249	-1315.48474							
129	1.280				-88.15777	907.13452	-1256.96240																						-497.70352	1141.96631	-1408.88623	61.61166	933.13678	-1274.11450	-494.83316	895.78888	-1303.59570				-369.68643	933.45471	-1256.62207				-105.27303	460.34354	-1343.59766	-399.71960	478.14960	-1312.79980							
130	1.290				-89.75569	907.50488	-1252.27930																						-499.22610	1142.06201	-1406.15955	59.58087	934.14746	-1267.99646	-496.73288	896.44757	-1300.68787				-371.95432	933.76160	-1253.48657				-107.30179	459.13702	-1344.47620	-401.23972	477.70850	-1310.41138							
131	1.300				-92.05037	906.39594	-1252.34131																						-500.66748	1142.06885	-1403.32251	58.49920	933.85883	-1264.86023	-496.96017	896.25366	-1298.00464				-372.69913	933.52783	-1251.21362				-110.93493	459.21381	-1341.54553	-404.01663	478.56323	-1307.93726							
132	1.310				-92.58298	906.78241	-1247.28040																						-502.37317	1142.29065	-1400.40540	57.89058	933.38483	-1263.41248	-498.85522	897.47961	-1293.69849				-374.68353	934.43866	-1248.14111				-112.44447	458.56003	-1340.51929	-405.23618	476.61136	-1305.48291							
133	1.320				-95.39856	906.35925	-1244.26355																						-503.69418	1142.74524	-1398.40845	56.45164	933.39124	-1259.63647	-500.10864	896.62439	-1291.47534				-376.42825	934.74023	-1245.17859				-114.66402	461.29654	-1334.07495	-408.91409	477.83606	-1302.52490							
134	1.330				-98.06158	905.82941	-1240.97400																						-505.08533	1142.83911	-1395.31458	55.49132	933.39758	-1257.32117	-501.29211	897.77051	-1288.08984				-377.90631	935.13721	-1242.51746				-116.66781	460.95065	-1329.96106	-410.94757	477.38315	-1299.23413							
135	1.340				-100.40972	905.82758	-1238.43933																						-506.54507	1143.53149	-1393.14661	54.13327	933.59094	-1253.04614	-503.12210	898.30768	-1284.72717				-380.12955	933.81335	-1239.31140				-119.26451	459.55695	-1324.79810	-414.30066	477.47919	-1296.47144							
136	1.350				-102.79511	905.69958	-1235.98389																						-507.93765	1142.34644	-1387.46753	53.10165	933.04028	-1250.62585	-504.28391	897.33472	-1281.91357				-382.10785	933.70300	-1236.88586				-121.54254	459.49786	-1323.94238	-415.77533	476.68893	-1293.94849							
137	1.360				-104.43551	905.88733	-1232.33887																						-509.28448	1142.20935	-1383.67029	51.98611	932.03064	-1248.17883	-506.99707	898.54553	-1278.89758				-383.67453	933.70691	-1233.92419				-123.45502	457.66031	-1325.11279	-420.17700	476.69620	-1291.11145							
138	1.370				-105.52554	906.05579	-1227.47534																						-510.95309	1142.12415	-1380.12939	50.58743	932.42462	-1245.32385	-508.32660	898.59949	-1275.50842				-385.95633	933.67029	-1230.88708				-126.39272	457.87125	-1319.90210	-422.88593	476.79980	-1289.96985							
139	1.380				-107.93388	904.64880	-1224.24890																						-512.52924	1142.33435	-1377.07617	48.90564	931.21075	-1241.46692	-509.66602	898.51123	-1271.58716				-388.06967	933.90393	-1227.78906				-128.05788	457.99814	-1315.86780	-425.64963	475.46149	-1288.01465							
140	1.390				-109.78797	904.35364	-1223.42297																						-513.90179	1143.00671	-1375.17651	47.85964	931.30426	-1240.30640	-510.19168	898.51282	-1268.13806				-389.15179	933.09216	-1224.91345				-129.00458	458.09079	-1312.42358	-429.81256	475.81583	-1285.27820							
141	1.400				-111.92271	903.57971	-1219.48755																						-515.90027	1143.42493	-1372.39917	47.69499	930.89709	-1241.35510	-511.24142	898.45319	-1265.33020				-391.50858	932.85822	-1222.08594				-131.38524	459.72449	-1305.34692	-433.11172	474.42276	-1283.39587							
142	1.410				-113.64754	903.87982	-1216.32141																						-517.48297	1143.84180	-1369.62695	45.10714	930.47687	-1235.48840	-513.04395	898.89050	-1261.60657				-393.46835	933.11646	-1219.28333				-132.66534	457.59137	-1302.17078	-434.97217	473.75125	-1280.51367							
143	1.420				-115.12065	903.69403	-1214.30298																						-519.29980	1143.67139	-1365.21179	44.82506	929.75684	-1237.27893	-513.82990	899.29681	-1259.60852				-396.27621	933.06421	-1216.24915				-134.85106	458.07724	-1294.46680	-438.36960	473.37967	-1278.04688							
